<svg xmlns="http://www.w3.org/2000/svg" viewBox="0 0 284.91 290.45"><defs><style>.cls-1{fill:#f1f1f2;}.cls-2{fill:#9fd7f5;}.cls-3{font-size:8px;}.cls-14,.cls-3{fill:#182a32;}.cls-13,.cls-14,.cls-3,.cls-4,.cls-5{font-family:ProximaNova-Regular, Proxima Nova;}.cls-4{font-size:14px;}.cls-4,.cls-9{fill:#16467a;}.cls-5{font-size:6px;fill:#231f20;}.cls-6{letter-spacing:-0.02em;}.cls-7{fill:#4597d0;}.cls-8{letter-spacing:-0.01em;}.cls-10{fill:#2f6da5;}.cls-11,.cls-12{fill:none;stroke-linecap:round;stroke-width:0.5px;}.cls-11{stroke:#16467a;stroke-linejoin:round;}.cls-12{stroke:#fff;stroke-miterlimit:10;}.cls-13{font-size:3.74px;fill:#fff;}.cls-14{font-size:12px;}.cls-15{fill:#5cb6e5;}</style></defs><title>Diagrams</title><g id="Layer_2" data-name="Layer 2"><rect class="cls-1" x="22.83" y="42.72" width="198" height="218.87" rx="5.1"/><rect class="cls-2" x="38.91" y="69.39" width="165.49" height="113.02" rx="5.1"/><rect class="cls-2" x="40.15" y="210.92" width="165.49" height="35.21" rx="5.1"/><text class="cls-3" transform="translate(107.96 64.29)">Node </text><text class="cls-3" transform="translate(111.96 203.84)">Node </text><text class="cls-4" transform="translate(116.8 229.15)">...</text><text class="cls-5" transform="translate(67.72 89.31)"><tspan class="cls-6">K</tspan><tspan x="3.49" y="0">ubelet </tspan></text><rect class="cls-7" x="55.27" y="92.35" width="45" height="13.37" rx="2"/><text class="cls-5" transform="translate(75.58 150.13)"><tspan class="cls-8">P</tspan><tspan x="3.44" y="0">od</tspan></text><rect class="cls-9" x="58.24" y="153.17" width="45" height="13.37" rx="2"/><text class="cls-5" transform="translate(150.36 89.31)">Daemonset</text><rect class="cls-10" x="142.99" y="92.35" width="45" height="13.37" rx="2"/><polyline class="cls-11" points="108.43 97.57 107.49 96.62 108.43 95.68"/><polyline class="cls-11" points="134.83 95.68 135.77 96.62 134.83 97.57"/><line class="cls-11" x1="107.49" y1="96.62" x2="135.77" y2="96.62"/><polyline class="cls-11" points="194.76 99.97 193.81 99.03 194.76 98.09"/><polyline class="cls-11" points="212.42 230.03 211.48 229.09 212.42 228.15"/><polyline class="cls-11" points="235.87 98.09 236.81 99.03 235.87 99.97"/><polyline class="cls-11" points="250.98 117.31 251.92 116.37 252.87 117.31"/><polyline class="cls-11" points="236.81 99.03 208.53 99.03 193.81 99.03"/><polyline class="cls-11" points="108.9 160.79 107.96 159.85 108.9 158.91"/><polyline class="cls-11" points="134.83 100 135.77 100.95 134.83 101.89"/><polyline class="cls-11" points="76.83 112.72 77.77 111.78 78.72 112.72"/><polyline class="cls-11" points="78.72 139.12 77.77 140.06 76.83 139.12"/><line class="cls-11" x1="77.77" y1="111.78" x2="77.77" y2="140.06"/><text class="cls-5" transform="translate(242.82 89.17)">Consul</text><ellipse class="cls-9" cx="251.92" cy="95.44" rx="8.64" ry="3.39"/><path class="cls-9" d="M260.57,107c0,1.87-3.87,3.39-8.65,3.39s-8.64-1.52-8.64-3.39"/><polyline class="cls-9" points="243.28 107.01 243.28 95.44 260.57 95.44 260.57 107.01"/><path class="cls-12" d="M260.83,103.41c0,1.93-4,3.5-8.91,3.5s-8.91-1.57-8.91-3.5"/><path class="cls-12" d="M260.83,99.49c0,1.93-4,3.5-8.91,3.5s-8.91-1.57-8.91-3.5"/><path class="cls-12" d="M260.85,95.56c0,1.93-4,3.49-8.91,3.49s-8.81-1.52-8.91-3.42v-.07"/><polyline class="cls-11" points="107.96 159.85 114.33 159.85 114.33 100.95 135.77 100.95"/><circle class="cls-9" cx="72.44" cy="125.92" r="2.77"/><text class="cls-13" transform="translate(71.8 127.04)">1</text><circle class="cls-9" cx="107.96" cy="130.4" r="2.77"/><text class="cls-13" transform="translate(106.86 131.52)">2</text><circle class="cls-9" cx="121.63" cy="89.96" r="2.77"/><text class="cls-13" transform="translate(120.59 91.07)">3</text><text class="cls-14" transform="translate(88.04 36.87)">k8s Cluster </text><circle class="cls-9" cx="229.36" cy="93.43" r="2.77"/><text class="cls-13" transform="translate(228.32 94.55)">4</text><circle class="cls-15" cx="161.09" cy="160.8" r="7.09"/><circle class="cls-7" cx="185.98" cy="160.8" r="7.09"/><circle class="cls-15" cx="162.34" cy="229.09" r="7.09"/><circle class="cls-7" cx="187.23" cy="229.09" r="7.09"/><polyline class="cls-11" points="211.48 229.09 251.94 229.09 251.94 116.37"/></g></svg>